<svg id="bold" enable-background="new 0 0 24 24" height="512" viewBox="0 0 24 24" width="512" xmlns="http://www.w3.org/2000/svg"><g><g><g>
<path fill="#c21a1a" d="m11.134 1.95c-.013-.016-.018-.035-.033-.05s-.034-.02-.049-.033c-1.174-1.153-2.781-1.867-4.552-1.867-3.584 0-6.5 2.916-6.5 6.5 0 1.771.714 3.377 1.866 4.55.013.016.018.035.033.05s.034.02.049.033c1.174 1.153 2.781 1.867 4.552 1.867 3.584 0 6.5-2.916 6.5-6.5 0-1.771-.714-3.377-1.866-4.55zm-4.634-.45c1.108 0 2.123.374 2.953.987l-6.967 6.966c-.612-.83-.986-1.845-.986-2.953 0-2.757 2.243-5 5-5zm0 10c-1.108 0-2.123-.374-2.953-.987l6.967-6.966c.612.83.986 1.845.986 2.953 0 2.757-2.243 5-5 5z"/></g></g></g><g><g><g>
<path fill="#999" d="m7.5 19c-1.38 0-2.5 1.12-2.5 2.5s1.12 2.5 2.5 2.5 2.5-1.12 2.5-2.5-1.12-2.5-2.5-2.5z"/></g></g></g><g><g><g>
<path fill="#999" d="m19.5 19c-1.38 0-2.5 1.12-2.5 2.5s1.12 2.5 2.5 2.5 2.5-1.12 2.5-2.5-1.12-2.5-2.5-2.5z"/></g></g></g><g><g><g>
<path fill="#999" d="m15 10.75v10.5c0 .41-.34.75-.75.75h-3.3c.02-.16.05-.33.05-.5 0-1.93-1.57-3.5-3.5-3.5s-3.5 1.57-3.5 3.5c0 .17.03.34.05.5h-1.3c-.41 0-.75-.34-.75-.75v-7.55c1.34.85 2.89 1.3 4.5 1.3 3.44 0 6.41-2.05 7.74-5h.01c.41 0 .75.34.75.75z"/></g></g></g><g><g><g>
<path fill="#999" d="m19.25 13.55h-2.5c-.414 0-.75.336-.75.75v6.95c0 .03.013.055.017.083.089-1.851 1.61-3.333 3.483-3.333 1.93 0 3.5 1.57 3.5 3.5 0 .171-.027.335-.051.5h.301c.414 0 .75-.336.75-.75v-2.95c0-2.619-2.131-4.75-4.75-4.75z"/></g></g></g></svg>